<svg xmlns="http://www.w3.org/2000/svg" width="24" height="24" viewBox="0 0 24 24">
    <g fill="none" fill-rule="evenodd">
        <g fill="#FFF">
            <g>
                <g>
                    <g>
                        <path d="M15.833 0H4.167C1.867.003.003 1.867 0 4.167v11.666c.003 2.3 1.867 4.164 4.167 4.167h11.666c2.3-.003 4.164-1.867 4.167-4.167V4.167C19.997 1.867 18.133.003 15.833 0zM4.167 1.667h11.666c1.381 0 2.5 1.119 2.5 2.5v11.666c-.001.372-.087.738-.25 1.071l-7.635-7.636c-.782-.781-1.842-1.22-2.947-1.22s-2.165.439-2.947 1.22l-2.887 2.887V4.167c0-1.381 1.119-2.5 2.5-2.5zm0 16.666c-1.381 0-2.5-1.119-2.5-2.5v-1.321l4.065-4.065c.469-.47 1.105-.733 1.768-.733s1.3.263 1.768.733l7.636 7.636c-.333.163-.7.249-1.07.25H4.166z" transform="translate(-16.000000, -268.000000) translate(0.000000, 260.000000) translate(16.000000, 8.000000) translate(2.000000, 2.000000)"/>
                        <path d="M13.333 8.75c1.611 0 2.917-1.306 2.917-2.917 0-1.61-1.306-2.916-2.917-2.916-1.61 0-2.916 1.306-2.916 2.916 0 1.611 1.306 2.917 2.916 2.917zm0-4.167c.69 0 1.25.56 1.25 1.25s-.56 1.25-1.25 1.25-1.25-.56-1.25-1.25.56-1.25 1.25-1.25z" transform="translate(-16.000000, -268.000000) translate(0.000000, 260.000000) translate(16.000000, 8.000000) translate(2.000000, 2.000000)"/>
                    </g>
                </g>
            </g>
        </g>
    </g>
</svg>
