<svg xmlns="http://www.w3.org/2000/svg" width="24" height="24" viewBox="0 0 24 24">
    <g fill="none" fill-rule="evenodd">
        <g fill="#FFF">
            <g>
                <g>
                    <g>
                        <path d="M8.34 2.5l-1.673-.012C6.66 1.112 5.543 0 4.167 0H2.5C1.12 0 0 1.12 0 2.5v1.667c0 1.378 1.116 2.496 2.494 2.5l-.012 1.66c-.001.222.085.434.24.592.156.157.368.246.589.248h.005c.458 0 .83-.37.833-.828l.012-1.672h.006c1.38 0 2.5-1.12 2.5-2.5v-.012l1.66.012h.006c.298 0 .574-.157.723-.414.15-.258.151-.575.003-.834-.148-.258-.422-.418-.72-.419zM5 4.167c0 .46-.373.833-.833.833H2.5c-.46 0-.833-.373-.833-.833V2.5c0-.46.373-.833.833-.833h1.667c.46 0 .833.373.833.833v1.667zM17.5 0h-1.667c-1.378 0-2.496 1.116-2.5 2.494l-1.661-.012h-.005c-.46-.001-.835.37-.837.83-.001.461.37.836.83.837l1.673.012v.006c0 1.38 1.12 2.5 2.5 2.5h.012l-.012 1.66c-.001.222.085.434.24.591.155.158.367.247.588.249h.006c.458 0 .83-.37.833-.828l.012-1.672C18.888 6.66 20 5.543 20 4.167V2.5C20 1.12 18.88 0 17.5 0zm.833 4.167c0 .46-.373.833-.833.833h-1.667c-.46 0-.833-.373-.833-.833V2.5c0-.46.373-.833.833-.833H17.5c.46 0 .833.373.833.833v1.667zM17.506 13.333l.011-1.661c.002-.221-.085-.434-.24-.591-.155-.157-.367-.246-.588-.248h-.005c-.458 0-.83.37-.833.828l-.012 1.672h-.006c-1.38 0-2.5 1.12-2.5 2.5v.012l-1.66-.012h-.006c-.46-.001-.835.37-.837.83-.001.461.37.835.83.837l1.673.012c.007 1.376 1.124 2.488 2.5 2.488H17.5c1.38 0 2.5-1.12 2.5-2.5v-1.667c0-1.378-1.116-2.496-2.494-2.5zm.827 4.167c0 .46-.373.833-.833.833h-1.667c-.46 0-.833-.373-.833-.833v-1.667c0-.46.373-.833.833-.833H17.5c.46 0 .833.373.833.833V17.5zM8.34 15.85l-1.673-.01v-.007c0-1.38-1.12-2.5-2.5-2.5h-.012l.012-1.66c.001-.222-.085-.434-.24-.591-.155-.158-.367-.247-.588-.249h-.006c-.458 0-.83.37-.833.828l-.012 1.672C1.112 13.34 0 14.457 0 15.833V17.5C0 18.88 1.12 20 2.5 20h1.667c1.378 0 2.496-1.116 2.5-2.494l1.661.011h.005c.46.002.835-.37.837-.83.001-.46-.37-.835-.83-.836zM5 17.5c0 .46-.373.833-.833.833H2.5c-.46 0-.833-.373-.833-.833v-1.667c0-.46.373-.833.833-.833h1.667c.46 0 .833.373.833.833V17.5z" transform="translate(-16.000000, -228.000000) translate(0.000000, 220.000000) translate(16.000000, 8.000000) translate(2.000000, 2.000000)"/>
                    </g>
                </g>
            </g>
        </g>
    </g>
</svg>
