<svg xmlns="http://www.w3.org/2000/svg" width="24" height="24" viewBox="0 0 24 24">
    <g fill="none" fill-rule="evenodd">
        <g fill="#FFF">
            <g>
                <g>
                    <g>
                        <path d="M6.25 10.833c-2.071 0-3.75-1.679-3.75-3.75 0-2.07 1.679-3.75 3.75-3.75 2.071 0 3.75 1.68 3.75 3.75-.002 2.07-1.68 3.748-3.75 3.75zM6.25 5c-1.15 0-2.083.933-2.083 2.083 0 1.15.932 2.084 2.083 2.084 1.15 0 2.083-.933 2.083-2.084C8.333 5.933 7.401 5 6.25 5zm6.25 14.167v-.417c0-3.452-2.798-6.25-6.25-6.25S0 15.298 0 18.75v.417c0 .46.373.833.833.833.46 0 .834-.373.834-.833v-.417c0-2.531 2.052-4.583 4.583-4.583s4.583 2.052 4.583 4.583v.417c0 .46.373.833.834.833.46 0 .833-.373.833-.833zM20 15c0-2.3-1.352-4.386-3.452-5.325-2.1-.94-4.556-.556-6.27.977-.226.198-.327.502-.267.795.061.293.274.532.56.624.284.093.597.025.818-.177 1.225-1.095 2.979-1.368 4.479-.698 1.5.671 2.465 2.16 2.465 3.804 0 .46.373.833.834.833.46 0 .833-.373.833-.833zm-5.417-7.5c-2.07 0-3.75-1.679-3.75-3.75 0-2.071 1.68-3.75 3.75-3.75 2.071 0 3.75 1.679 3.75 3.75-.002 2.07-1.68 3.748-3.75 3.75zm0-5.833c-1.15 0-2.083.932-2.083 2.083 0 1.15.933 2.083 2.083 2.083 1.15 0 2.084-.932 2.084-2.083 0-1.15-.933-2.083-2.084-2.083z" transform="translate(-16.000000, -148.000000) translate(0.000000, 140.000000) translate(16.000000, 8.000000) translate(2.000000, 2.000000)"/>
                    </g>
                </g>
            </g>
        </g>
    </g>
</svg>
