<svg xmlns="http://www.w3.org/2000/svg" width="24" height="24" viewBox="0 0 24 24">
    <g fill="none" fill-rule="evenodd">
        <g fill="#FFF">
            <g>
                <g>
                    <g>
                        <path d="M19.98 9.383C19.646 3.95 15.027-.217 9.588.01 4.148.234-.112 4.767.002 10.209c.114 5.442 4.56 9.794 10.003 9.791h5.813c2.298-.002 4.16-1.865 4.163-4.162V9.383zm-1.664 6.455c0 1.379-1.118 2.497-2.498 2.497h-5.813c-2.376-.001-4.639-1.013-6.224-2.783-1.593-1.77-2.344-4.141-2.06-6.505.454-3.792 3.42-6.793 7.205-7.294.36-.045.72-.067 1.082-.068 1.94-.005 3.82.673 5.31 1.915 1.76 1.462 2.843 3.58 2.998 5.862v6.376z" transform="translate(-16.000000, -108.000000) translate(0.000000, 100.000000) translate(16.000000, 8.000000) translate(2.000000, 2.000000)"/>
                        <path d="M6.66 7.513h3.33c.46 0 .833-.373.833-.833 0-.46-.372-.832-.832-.832H6.66c-.46 0-.833.372-.833.832 0 .46.373.833.833.833zM13.32 9.178H6.66c-.459 0-.832.372-.832.832 0 .46.373.833.833.833h6.66c.46 0 .832-.373.832-.833 0-.46-.372-.832-.832-.832zM13.32 12.508H6.66c-.459 0-.832.372-.832.832 0 .46.373.833.833.833h6.66c.46 0 .832-.373.832-.833 0-.46-.372-.832-.832-.832z" transform="translate(-16.000000, -108.000000) translate(0.000000, 100.000000) translate(16.000000, 8.000000) translate(2.000000, 2.000000)"/>
                    </g>
                </g>
            </g>
        </g>
    </g>
</svg>
