<svg xmlns="http://www.w3.org/2000/svg" width="24" height="24" viewBox="0 0 24 24">
    <g fill="none" fill-rule="evenodd">
        <g fill="#FFF">
            <g>
                <g>
                    <g>
                        <path d="M8.378 5.001c-1.84 0-3.333 1.492-3.333 3.333 0 1.841 1.493 3.333 3.333 3.333 1.841 0 3.333-1.492 3.333-3.333 0-.884-.35-1.731-.976-2.357-.625-.625-1.473-.976-2.357-.976zm0 5c-.92 0-1.666-.746-1.666-1.667 0-.92.746-1.666 1.666-1.666.92 0 1.667.746 1.667 1.666 0 .92-.746 1.667-1.667 1.667z" transform="translate(-16.000000, -68.000000) translate(0.000000, 60.000000) translate(16.000000, 8.000000) translate(4.000000, 2.000000)"/>
                        <path d="M8.378 20c-1.423.007-2.762-.676-3.592-1.833C1.611 13.787 0 10.493 0 8.378 0 3.751 3.751 0 8.378 0c4.628 0 8.379 3.751 8.379 8.378 0 2.115-1.61 5.408-4.786 9.789-.83 1.157-2.169 1.84-3.593 1.833zm0-18.181c-3.621.004-6.557 2.94-6.56 6.561 0 1.675 1.577 4.772 4.44 8.721.493.68 1.281 1.081 2.12 1.081.84 0 1.628-.402 2.121-1.081 2.863-3.949 4.44-7.046 4.44-8.72C14.936 4.757 12 1.822 8.38 1.818z" transform="translate(-16.000000, -68.000000) translate(0.000000, 60.000000) translate(16.000000, 8.000000) translate(4.000000, 2.000000)"/>
                    </g>
                </g>
            </g>
        </g>
    </g>
</svg>
