<svg xmlns="http://www.w3.org/2000/svg" width="24" height="24" viewBox="0 0 24 24">
    <g fill="none" fill-rule="evenodd">
        <g fill="#FFF">
            <g>
                <g>
                    <g>
                        <path d="M19.513 13.005l-2.743-2.742c-.208-.222-.52-.313-.815-.237-.294.076-.524.306-.6.6-.075.295.016.607.238.815l1.908 1.912c-2.096.004-4.105-.837-5.572-2.334-.163-.15-.38-.227-.6-.215-.222.013-.428.114-.573.282l-.01.017c-.292.338-.264.846.062 1.151 1.767 1.788 4.182 2.785 6.696 2.765l-1.911 1.911c-.238.204-.34.524-.267.829.074.304.312.541.617.614.305.072.624-.032.827-.27l2.743-2.743c.65-.65.65-1.704 0-2.355z" transform="translate(-16.000000, -308.000000) translate(0.000000, 300.000000) translate(16.000000, 8.000000) translate(2.000000, 3.000000)"/>
                        <path d="M17.501 5.02l-1.908 1.907c-.016.022-.031.045-.045.069-.28.34-.243.84.083 1.136.326.296.827.285 1.14-.026l1.421-1.42 1.322-1.321c.456-.46.604-1.142.38-1.75-.08-.228-.21-.435-.381-.607L16.77.27c-.207-.225-.52-.319-.817-.243-.297.075-.529.306-.604.603-.075.296.019.61.244.818l1.91 1.91c-4.11.01-6.364 2.228-8.407 4.561-1.877-2.118-4.1-4.232-7.862-4.527l-.4-.039c-.46 0-.834.374-.834.834.009.456.377.824.833.833.06 0 .24.028.24.028 3.246.245 5.11 2.074 6.922 4.139-1.802 2.055-3.652 3.917-6.872 4.133l-.334.018c-.457.028-.804.422-.775.879.028.456.422.803.879.775.13-.006.341-.01.445-.02 4.184-.322 6.453-3 8.476-5.34 2.044-2.362 3.974-4.597 7.687-4.612z" transform="translate(-16.000000, -308.000000) translate(0.000000, 300.000000) translate(16.000000, 8.000000) translate(2.000000, 3.000000)"/>
                    </g>
                </g>
            </g>
        </g>
    </g>
</svg>
