<svg xmlns="http://www.w3.org/2000/svg" width="24" height="24" viewBox="0 0 24 24">
    <g fill="none" fill-rule="evenodd">
        <g fill="#FFF" fill-rule="nonzero">
            <g>
                <g>
                    <g>
                        <path d="M10 0C4.477 0 0 4.477 0 10s4.477 10 10 10 10-4.477 10-10C19.994 4.48 15.52.006 10 0zm8.333 10c.001 1.633-.48 3.23-1.385 4.59l-.993-.994c-.078-.078-.122-.184-.122-.294V12.5c0-1.38-1.119-2.5-2.5-2.5h-2.5c-.46 0-.833-.373-.833-.833V8.75c0-.23.187-.417.417-.417 1.15 0 2.083-.932 2.083-2.083v-.833c0-.23.187-.417.417-.417h1.149c.552-.002 1.08-.22 1.472-.61l.314-.314C17.44 5.638 18.334 7.773 18.334 10zm-16.625.803l2.631 2.631c.468.471 1.105.735 1.768.733h2.226c.46 0 .834.373.834.833v3.29c-3.952-.403-7.072-3.535-7.46-7.487zm9.125 7.488V15c0-1.38-1.119-2.5-2.5-2.5H6.107c-.22 0-.433-.088-.59-.244L1.803 8.54c.485-2.754 2.321-5.08 4.887-6.19 2.566-1.111 5.518-.858 7.858.674l-.187.187c-.078.077-.184.12-.294.121h-1.15c-1.15 0-2.083.933-2.083 2.084v.833c0 .23-.186.417-.416.417-1.15 0-2.084.932-2.084 2.083v.417c0 1.38 1.12 2.5 2.5 2.5h2.5c.46 0 .834.373.834.833v.802c.001.552.22 1.08.61 1.472l1.114 1.114c-1.357 1.362-3.145 2.211-5.058 2.403z" transform="translate(-16.000000, -388.000000) translate(0.000000, 380.000000) translate(16.000000, 8.000000) translate(2.000000, 2.000000)"/>
                    </g>
                </g>
            </g>
        </g>
    </g>
</svg>
