<svg xmlns="http://www.w3.org/2000/svg" width="24" height="24" viewBox="0 0 24 24">
    <g fill="none" fill-rule="evenodd">
        <g fill="#FFF">
            <g>
                <g>
                    <g>
                        <path d="M8.998 6.667c-1.841 0-3.334 1.492-3.334 3.333 0 1.84 1.493 3.333 3.334 3.333 1.84 0 3.333-1.492 3.333-3.333 0-.884-.351-1.732-.976-2.357-.625-.625-1.473-.976-2.357-.976zm0 5c-.92 0-1.667-.747-1.667-1.667s.746-1.667 1.667-1.667c.92 0 1.666.747 1.666 1.667s-.746 1.667-1.666 1.667z" transform="translate(-16.000000, -188.000000) translate(0.000000, 180.000000) translate(16.000000, 8.000000) translate(3.000000, 2.000000)"/>
                        <path d="M16.743 11.583l-.37-.213c.166-.906.166-1.835 0-2.742l.37-.213c.774-.447 1.25-1.272 1.251-2.166 0-.894-.476-1.72-1.25-2.167-.774-.447-1.727-.447-2.501 0l-.371.214c-.7-.599-1.505-1.062-2.374-1.369V2.5c0-1.38-1.12-2.5-2.5-2.5-1.381 0-2.5 1.12-2.5 2.5v.427c-.87.308-1.674.773-2.374 1.372l-.372-.216C2.555 3.393 1.025 3.803.335 5s-.28 2.726.917 3.417l.37.213c-.167.906-.167 1.835 0 2.742l-.37.213c-1.197.69-1.607 2.22-.917 3.417.69 1.196 2.22 1.607 3.417.916l.37-.214c.701.599 1.506 1.063 2.376 1.368v.428c0 1.38 1.119 2.5 2.5 2.5 1.38 0 2.5-1.12 2.5-2.5v-.428c.868-.307 1.673-.772 2.373-1.371l.372.215c1.197.69 2.727.28 3.417-.917.69-1.196.28-2.726-.917-3.417v.001zm-2.124-3.146c.283 1.022.283 2.102 0 3.125-.101.366.058.754.387.944l.903.521c.4.23.536.74.306 1.14-.23.398-.74.535-1.139.305l-.905-.524c-.33-.19-.746-.134-1.013.138-.741.757-1.676 1.297-2.702 1.562-.369.095-.626.427-.626.808V17.5c0 .46-.373.833-.833.833-.46 0-.834-.373-.834-.833v-1.043c0-.38-.257-.713-.625-.808-1.027-.266-1.96-.807-2.702-1.566-.267-.271-.683-.328-1.013-.137l-.903.522c-.258.152-.577.153-.836.004-.26-.149-.42-.425-.419-.724.001-.3.162-.575.422-.723l.903-.522c.33-.19.488-.578.387-.944-.282-1.022-.282-2.102 0-3.125.1-.365-.06-.751-.388-.94l-.903-.522c-.399-.23-.536-.74-.305-1.14.23-.398.74-.535 1.138-.305l.905.524c.329.191.745.136 1.012-.134.742-.758 1.676-1.298 2.702-1.563.37-.095.628-.429.626-.81V2.5c0-.46.373-.833.834-.833.46 0 .833.373.833.833v1.043c0 .38.257.713.626.808 1.026.266 1.961.807 2.702 1.566.267.271.684.328 1.013.137l.903-.522c.258-.152.577-.153.837-.004.259.149.419.425.418.724 0 .3-.162.575-.422.723l-.903.522c-.327.19-.486.576-.386.94z" transform="translate(-16.000000, -188.000000) translate(0.000000, 180.000000) translate(16.000000, 8.000000) translate(3.000000, 2.000000)"/>
                    </g>
                </g>
            </g>
        </g>
    </g>
</svg>
