<svg width="24" height="24" xmlns="http://www.w3.org/2000/svg">
    <g fill="#FFF" fill-rule="evenodd">
        <path d="M22 2.69v4.828a1.035 1.035 0 0 1-2.07 0V5.53l-8.172 8.174a1.035 1.035 0 0 1-1.463-1.463L18.47 4.07h-1.987a1.035 1.035 0 1 1 0-2.069h4.828c.38.001.689.31.69.69z"/>
        <path d="M21.941 13.042c0 .038-.003.076-.007.118A10.001 10.001 0 1 1 10.84 2.066a1.039 1.039 0 0 1 .9 1.717c-.168.189-.4.31-.651.338a7.932 7.932 0 1 0 8.79 8.79c.06-.52.5-.912 1.024-.91a1.04 1.04 0 0 1 1.038 1.041z"/>
    </g>
</svg>
