<svg xmlns="http://www.w3.org/2000/svg" width="24" height="24" viewBox="0 0 24 24">
    <g fill="none" fill-rule="evenodd">
        <g fill="#FFF">
            <g>
                <g>
                    <g>
                        <path d="M11.667 5c.46 0 .833.373.833.833 0 .46-.373.834-.833.834H5c-.46 0-.833-.373-.833-.834C4.167 5.373 4.54 5 5 5h6.667zm6.422 14.756c-.325.325-.853.325-1.178 0l-2.006-2.006c-.594.38-1.284.581-1.988.583-1.517 0-2.884-.913-3.465-2.315-.58-1.4-.26-3.014.813-4.086 1.073-1.073 2.685-1.394 4.087-.813 1.401.58 2.315 1.948 2.315 3.464-.002.705-.205 1.395-.584 1.989l2.006 2.006c.325.325.325.852 0 1.178zm-5.172-3.09c1.15 0 2.083-.932 2.083-2.083 0-1.15-.933-2.083-2.083-2.083-1.15 0-2.084.933-2.084 2.083 0 1.15.933 2.084 2.084 2.084zm-3.75 1.667h-5c-1.381 0-2.5-1.119-2.5-2.5V4.167c0-1.381 1.119-2.5 2.5-2.5h10c.46 0 .833.373.833.833v6.667c0 .46.373.833.833.833.46 0 .834-.373.834-.833V2.5c0-1.38-1.12-2.5-2.5-2.5h-10C1.867.003.003 1.867 0 4.167v11.666c.003 2.3 1.867 4.164 4.167 4.167h5c.46 0 .833-.373.833-.833 0-.46-.373-.834-.833-.834z" transform="translate(-16.000000, -348.000000) translate(0.000000, 340.000000) translate(16.000000, 8.000000) translate(3.000000, 2.000000)"/>
                    </g>
                </g>
            </g>
        </g>
    </g>
</svg>
